<?xml version="1.0" encoding="UTF-8" standalone="no"?>
<!-- Created with Inkscape (http://www.inkscape.org/) -->

<svg
   version="1.1"
   id="svg1"
   width="21.796743"
   height="21.798973"
   viewBox="0 0 21.796743 21.798973"
   xmlns="http://www.w3.org/2000/svg"
   xmlns:svg="http://www.w3.org/2000/svg">
  <defs
     id="defs1" />
  <g
     id="g1"
     transform="translate(-1.0995563,-1.1037008)">
    <path
       style="fill:currentColor"
       d="M 10.875,22.872073 C 7.5866433,22.510726 4.7195515,20.775196 2.8933299,18.040548 c -0.868369,-1.300326 -1.4507543,-2.8193 -1.705575,-4.448469 -0.1175981,-0.751851 -0.1175981,-2.432307 0,-3.184158 C 1.6782316,7.2721097 3.3661648,4.6170123 5.9711371,2.8837219 6.9533813,2.2301585 8.0822116,1.7301484 9.2527667,1.4301395 10.2812,1.1665558 10.810173,1.1037008 12,1.1037008 c 1.184446,0 1.701985,0.06101 2.735616,0.3224862 3.831299,0.9691992 6.849527,3.9844745 7.834245,7.8265797 C 22.833444,10.2812 22.896299,10.810173 22.896299,12 c 0,1.189827 -0.06285,1.7188 -0.326438,2.747233 -0.577477,2.25316 -1.871287,4.267943 -3.702674,5.765981 -0.798441,0.65311 -2.02971,1.352577 -3.040158,1.727075 -0.579327,0.214713 -1.543715,0.463328 -2.186404,0.563645 -0.585669,0.09142 -2.193335,0.131026 -2.765625,0.06814 z m -0.07415,-5.8845 c 1.00758,-0.582616 1.863604,-1.089609 1.902276,-1.126653 0.06077,-0.05821 0.07349,-0.520279 0.09375,-3.404521 l 0.02344,-3.3371706 1.101562,-0.5974695 c 0.605859,-0.3286082 1.13414,-0.5980127 1.173958,-0.5986767 0.03982,-6.64e-4 0.577708,0.2717507 1.195312,0.6053658 l 1.122917,0.606573 0.01247,1.237045 c 0.01142,1.133304 0.0055,1.243059 -0.07031,1.308757 -0.128971,0.111725 -2.194352,1.303552 -2.258994,1.303552 -0.03165,0 -0.269111,-0.11713 -0.527685,-0.26029 -0.258573,-0.143159 -0.504805,-0.25363 -0.547181,-0.245491 -0.06747,0.01296 -0.07864,0.118864 -0.08987,0.851812 -0.0088,0.574703 0.0039,0.857175 0.04057,0.901346 0.06219,0.07493 1.053222,0.627623 1.125394,0.627623 0.06056,0 3.784703,-2.09596 3.897643,-2.193607 0.07596,-0.06567 0.08198,-0.232672 0.08131,-2.255064 -3.95e-4,-1.201278 -0.01622,-2.2082844 -0.03516,-2.2377923 -0.04701,-0.073234 -3.857528,-2.2197867 -3.940523,-2.2197867 -0.03643,0 -0.909081,0.4881203 -1.939213,1.0847117 -1.399104,0.8102775 -1.883901,1.113466 -1.916179,1.1983641 -0.02487,0.065404 -0.04321,1.5032115 -0.04321,3.3868352 0,3.007322 -0.0063,3.275611 -0.07786,3.303063 -0.04282,0.01643 -0.545981,0.303455 -1.118125,0.637827 -0.5721439,0.334372 -1.0740297,0.607949 -1.1153014,0.607949 -0.041272,0 -0.5822561,-0.275864 -1.2021876,-0.613031 L 6.5625,14.945812 v -1.278141 c 0,-1.159396 0.00762,-1.284635 0.082031,-1.348047 0.1319988,-0.112487 2.1989643,-1.303999 2.2621015,-1.303999 0.031613,0 0.2703343,0.116717 0.5304924,0.25937 0.2601581,0.142654 0.5055379,0.253125 0.5452886,0.245492 0.061317,-0.01178 0.074219,-0.140775 0.085097,-0.850893 0.0088,-0.574703 -0.0039,-0.8571752 -0.04057,-0.9013462 C 9.9647556,9.6933166 8.9737209,9.140625 8.9015488,9.140625 c -0.060561,0 -3.7847027,2.09596 -3.8976425,2.193607 -0.075956,0.06567 -0.081978,0.232672 -0.081313,2.255064 3.948e-4,1.201278 0.016215,2.208308 0.035156,2.237844 0.047325,0.0738 3.860053,2.219735 3.9438449,2.219735 0.03701,0 0.8916746,-0.476686 1.8992558,-1.059302 z"
       id="path1" />
  </g>
</svg>
