<?xml version="1.0" standalone="no"?>
<!DOCTYPE svg PUBLIC "-//W3C//DTD SVG 20010904//EN"
 "http://www.w3.org/TR/2001/REC-SVG-20010904/DTD/svg10.dtd">
<svg version="1.0" xmlns="http://www.w3.org/2000/svg"
 width="908.000000pt" height="931.000000pt" viewBox="0 0 908.000000 931.000000"
 preserveAspectRatio="xMidYMid meet">

<g transform="translate(0.000000,931.000000) scale(0.100000,-0.100000)"
fill="#000000" stroke="none">
<path d="M7300 8471 c-142 -66 -466 -234 -565 -293 -206 -123 -926 -660 -1008
-752 -15 -17 -57 -80 -94 -141 -121 -201 -165 -246 -280 -287 -98 -34 -148
-65 -220 -136 -87 -86 -127 -138 -284 -371 -68 -101 -147 -207 -176 -236 -55
-55 -147 -109 -260 -151 -164 -62 -234 -126 -332 -310 -83 -153 -122 -215
-183 -289 -103 -124 -293 -318 -364 -370 -89 -67 -89 -65 -125 -379 -24 -217
-69 -330 -231 -581 -82 -127 -126 -218 -173 -361 -34 -104 -55 -152 -79 -180
-37 -43 -170 -119 -228 -129 -20 -4 -44 -15 -53 -25 -9 -10 -45 -117 -79 -237
-34 -120 -74 -244 -88 -275 -33 -72 -97 -157 -153 -203 -73 -59 -125 -196
-127 -333 0 -62 3 -78 25 -110 46 -69 44 -84 -21 -137 -31 -26 -62 -57 -68
-68 -7 -12 -24 -92 -39 -177 -57 -334 -77 -421 -131 -595 -75 -237 -108 -360
-143 -530 -41 -197 -83 -436 -77 -442 14 -14 66 110 91 215 70 306 88 371 122
437 51 102 112 200 160 256 28 32 48 68 58 107 64 228 91 307 132 389 43 87
47 99 49 181 2 95 27 178 89 303 66 130 137 206 245 263 36 19 83 53 105 76
22 23 54 50 71 61 31 19 31 20 37 118 3 54 11 109 18 122 9 16 14 62 14 136 0
107 1 113 30 154 17 24 71 79 120 122 50 43 106 102 125 131 19 29 60 81 90
117 97 114 197 253 209 289 12 39 198 251 272 311 24 19 90 66 146 103 111 74
188 148 224 217 19 36 24 65 29 161 l5 117 77 113 c113 168 119 182 117 289
l-2 90 34 29 c32 29 247 192 354 271 231 168 373 276 412 312 33 31 60 72 100
154 39 79 76 137 130 200 95 113 161 207 252 363 41 69 86 145 101 170 56 93
88 156 95 190 18 84 36 110 109 159 39 26 115 73 168 105 126 74 208 136 258
194 22 26 79 122 126 215 101 199 169 293 324 447 94 93 430 370 506 416 38
23 7 20 -46 -5z"/>
<path d="M4739 8377 c-30 -24 -177 -142 -328 -262 -450 -360 -524 -430 -886
-840 -168 -190 -245 -269 -417 -428 -59 -53 -126 -124 -151 -156 -58 -78 -137
-232 -157 -306 -15 -60 -16 -60 -57 -65 -50 -6 -108 -51 -158 -124 -19 -28
-73 -136 -120 -239 -96 -208 -145 -301 -178 -334 -12 -12 -62 -46 -112 -75
-80 -47 -93 -59 -117 -107 -39 -76 -45 -82 -74 -70 -48 18 -66 10 -141 -63
-124 -121 -203 -249 -203 -331 0 -18 7 -66 16 -106 12 -61 13 -94 5 -177 -27
-269 -79 -399 -262 -659 -63 -88 -92 -146 -143 -280 -51 -133 -287 -852 -349
-1063 -50 -170 -53 -184 -36 -192 20 -11 31 6 81 130 47 118 136 291 366 709
52 96 117 224 144 285 111 250 143 306 274 478 83 109 127 221 159 404 18 108
39 173 90 276 48 97 75 126 220 233 239 177 267 199 329 259 78 76 101 125
120 253 15 98 19 108 92 235 140 243 195 306 318 368 47 24 99 58 117 76 42
44 148 227 244 421 81 166 84 169 321 393 100 95 122 129 279 435 169 329 230
410 564 748 118 119 212 217 209 217 -3 0 -30 -20 -59 -43z"/>
<path d="M8299 7158 c-164 -212 -350 -428 -408 -477 -104 -87 -142 -103 -456
-201 -38 -12 -92 -38 -120 -59 -27 -20 -90 -54 -140 -75 -183 -78 -221 -107
-294 -226 -19 -30 -44 -71 -56 -90 -12 -19 -43 -73 -70 -120 -71 -127 -102
-160 -195 -210 -54 -29 -96 -60 -122 -91 -29 -34 -68 -62 -149 -105 -61 -33
-130 -76 -154 -96 -23 -21 -82 -95 -129 -165 -48 -71 -105 -150 -127 -178 -35
-45 -98 -185 -130 -290 -17 -59 -76 -200 -117 -280 -63 -127 -143 -233 -345
-459 -95 -106 -219 -255 -305 -368 -60 -77 -152 -225 -152 -243 0 -6 -16 -62
-35 -124 -35 -108 -37 -113 -85 -147 -27 -19 -52 -43 -55 -53 -3 -10 -9 -79
-14 -152 -6 -96 -13 -144 -26 -169 -34 -66 -144 -249 -216 -357 -39 -59 -104
-157 -143 -218 l-71 -110 -5 -140 c-3 -77 -10 -149 -14 -160 -5 -11 -31 -50
-57 -86 -51 -69 -91 -151 -139 -283 -64 -178 -82 -220 -155 -373 -88 -182
-138 -316 -196 -527 -49 -180 -41 -210 21 -85 23 46 44 86 47 89 2 3 13 -6 23
-20 l19 -25 9 25 c5 14 37 108 72 210 70 206 138 372 179 440 88 144 118 203
181 366 39 98 89 226 112 284 60 153 116 258 167 313 24 26 114 100 198 163
94 70 163 130 177 153 41 65 132 252 171 353 44 113 61 132 188 208 114 69
133 100 148 243 6 64 22 132 45 200 42 120 72 175 115 212 37 30 126 76 184
95 78 25 176 81 223 128 26 26 86 70 132 97 47 27 98 63 113 80 34 36 57 110
57 180 0 64 25 113 123 244 40 53 79 116 87 140 12 36 21 46 55 61 38 16 77
64 202 248 11 16 12 16 30 -1 11 -9 24 -17 29 -17 5 0 20 35 34 77 14 42 37
96 53 120 32 52 33 58 7 114 -39 86 -16 148 63 170 23 7 45 15 50 19 4 4 12
53 17 110 l9 104 83 81 c140 134 289 257 322 265 17 5 57 11 89 15 75 8 108
36 116 95 7 53 31 72 59 47 11 -10 33 -22 50 -26 25 -8 34 -5 51 13 11 12 26
37 32 56 7 19 37 71 68 115 132 186 369 567 411 660 34 76 108 265 104 265 -2
0 -22 -24 -45 -52z"/>
<path d="M8913 5388 c-675 -606 -692 -620 -818 -699 -360 -224 -614 -543 -749
-939 l-35 -105 -138 -67 c-76 -37 -164 -77 -196 -89 -58 -22 -60 -24 -143
-150 -90 -137 -86 -124 -138 -374 -36 -169 -76 -243 -346 -630 -102 -147 -174
-240 -356 -460 -152 -183 -201 -278 -248 -478 -32 -134 -64 -217 -130 -337
-97 -178 -119 -240 -125 -365 -7 -121 -8 -125 -88 -234 -55 -76 -60 -96 -32
-114 12 -7 34 4 95 51 43 33 89 70 101 83 36 39 81 152 128 323 50 179 117
365 148 411 11 17 32 43 46 58 28 31 250 193 260 190 3 -1 14 -5 24 -8 15 -7
17 1 17 82 0 114 13 181 53 285 75 190 216 354 504 587 108 87 138 101 215
101 58 0 73 15 83 77 10 65 142 296 216 376 59 65 108 89 263 132 77 21 118
50 179 126 59 72 60 86 18 186 -40 97 -54 169 -55 288 0 93 2 105 31 165 43
88 167 227 266 299 94 68 145 120 209 211 25 36 88 106 139 155 192 185 306
326 603 749 151 214 171 245 163 252 -2 3 -76 -60 -164 -138z"/>
</g>
</svg>
