<svg viewBox="0 0 32 32" xmlns="http://www.w3.org/2000/svg">
  <circle cx="16" cy="16" r="15.5" fill="#2775CA" stroke="#263238"/>
  <path fill="#FFFFFF" d="M17.22,21.5h-2.44c-1.53,0-2.78-1.25-2.78-2.78V18.5c0-0.28,0.22-0.5,0.5-0.5s0.5,0.22,0.5,0.5v0.22c0,0.98,0.8,1.78,1.78,1.78h2.44c0.98,0,1.78-0.8,1.78-1.78c0-0.79-0.53-1.49-1.29-1.71l-3.69-1.05C12.83,15.61,12,14.51,12,13.28c0-1.53,1.25-2.78,2.78-2.78h2.44c1.53,0,2.78,1.25,2.78,2.78v0.22c0,0.28-0.22,0.5-0.5,0.5S19,13.78,19,13.5v-0.22c0-0.98-0.8-1.78-1.78-1.78h-2.44c-0.98,0-1.78,0.8-1.78,1.78c0,0.79,0.53,1.49,1.29,1.71l3.69,1.05c1.19,0.34,2.02,1.44,2.02,2.67C20,20.25,18.75,21.5,17.22,21.5z"/>
  <path fill="#FFFFFF" d="M16,23.5c-0.28,0-0.5-0.22-0.5-0.5v-2c0-0.28,0.22-0.5,0.5-0.5s0.5,0.22,0.5,0.5v2C16.5,23.28,16.28,23.5,16,23.5z"/>
  <path fill="#FFFFFF" d="M16,11.5c-0.28,0-0.5-0.22-0.5-0.5V9c0-0.28,0.22-0.5,0.5-0.5s0.5,0.22,0.5,0.5v2C16.5,11.28,16.28,11.5,16,11.5z"/>
</svg>